<mxfile host="app.diagrams.net" modified="2020-09-30T05:44:54.165Z" agent="5.0 (Macintosh; Intel Mac OS X 10_13_6) AppleWebKit/537.36 (KHTML, like Gecko) Chrome/85.0.4183.102 Safari/537.36" etag="0c_nvABobm9Qo1wlRl_Y" version="13.7.6" type="github">
  <diagram name="Page-1" id="822b0af5-4adb-64df-f703-e8dfc1f81529">
    <mxGraphModel dx="828" dy="481" grid="1" gridSize="10" guides="1" tooltips="1" connect="1" arrows="1" fold="1" page="1" pageScale="1" pageWidth="1100" pageHeight="850" background="#ffffff" math="0" shadow="0">
      <root>
        <mxCell id="0" />
        <mxCell id="1" parent="0" />
        <mxCell id="_ivJA7id74B36ELSF1Od-13" value="" style="whiteSpace=wrap;html=1;aspect=fixed;" vertex="1" parent="1">
          <mxGeometry x="580" y="235" width="430" height="430" as="geometry" />
        </mxCell>
        <mxCell id="_ivJA7id74B36ELSF1Od-1" value="" style="verticalLabelPosition=bottom;aspect=fixed;html=1;verticalAlign=top;strokeColor=none;align=center;outlineConnect=0;shape=mxgraph.citrix.web_server;" vertex="1" parent="1">
          <mxGeometry x="310" y="360" width="76.5" height="90" as="geometry" />
        </mxCell>
        <mxCell id="_ivJA7id74B36ELSF1Od-2" value="User A" style="shape=umlActor;verticalLabelPosition=bottom;verticalAlign=top;html=1;outlineConnect=0;" vertex="1" parent="1">
          <mxGeometry x="80" y="320" width="30" height="60" as="geometry" />
        </mxCell>
        <mxCell id="_ivJA7id74B36ELSF1Od-3" value="DB" style="shape=cylinder;whiteSpace=wrap;html=1;boundedLbl=1;backgroundOutline=1;" vertex="1" parent="1">
          <mxGeometry x="910" y="290" width="30" height="50" as="geometry" />
        </mxCell>
        <mxCell id="_ivJA7id74B36ELSF1Od-4" value="Load Balancer&lt;br&gt;" style="text;html=1;align=center;verticalAlign=middle;resizable=0;points=[];autosize=1;" vertex="1" parent="1">
          <mxGeometry x="346.5" y="440" width="90" height="20" as="geometry" />
        </mxCell>
        <mxCell id="_ivJA7id74B36ELSF1Od-5" value="user B" style="shape=umlActor;verticalLabelPosition=bottom;verticalAlign=top;html=1;outlineConnect=0;" vertex="1" parent="1">
          <mxGeometry x="80" y="420" width="30" height="60" as="geometry" />
        </mxCell>
        <mxCell id="_ivJA7id74B36ELSF1Od-6" value="user C" style="shape=umlActor;verticalLabelPosition=bottom;verticalAlign=top;html=1;outlineConnect=0;" vertex="1" parent="1">
          <mxGeometry x="80" y="540" width="30" height="60" as="geometry" />
        </mxCell>
        <mxCell id="_ivJA7id74B36ELSF1Od-10" value="" style="endArrow=classic;html=1;" edge="1" parent="1">
          <mxGeometry width="50" height="50" relative="1" as="geometry">
            <mxPoint x="120" y="380" as="sourcePoint" />
            <mxPoint x="350" y="390" as="targetPoint" />
          </mxGeometry>
        </mxCell>
        <mxCell id="_ivJA7id74B36ELSF1Od-11" value="" style="endArrow=classic;html=1;" edge="1" parent="1" source="_ivJA7id74B36ELSF1Od-5">
          <mxGeometry width="50" height="50" relative="1" as="geometry">
            <mxPoint x="130" y="390.0000000000001" as="sourcePoint" />
            <mxPoint x="360" y="400.0000000000001" as="targetPoint" />
          </mxGeometry>
        </mxCell>
        <mxCell id="_ivJA7id74B36ELSF1Od-12" value="" style="endArrow=classic;html=1;exitX=1;exitY=0.3333333333333333;exitDx=0;exitDy=0;exitPerimeter=0;" edge="1" parent="1" source="_ivJA7id74B36ELSF1Od-6">
          <mxGeometry width="50" height="50" relative="1" as="geometry">
            <mxPoint x="120" y="457.1698113207548" as="sourcePoint" />
            <mxPoint x="370" y="410.0000000000001" as="targetPoint" />
          </mxGeometry>
        </mxCell>
        <mxCell id="_ivJA7id74B36ELSF1Od-14" value="API Gateway" style="shape=process;whiteSpace=wrap;html=1;backgroundOutline=1;" vertex="1" parent="1">
          <mxGeometry x="450" y="365" width="80" height="55" as="geometry" />
        </mxCell>
        <mxCell id="_ivJA7id74B36ELSF1Od-15" value="" style="endArrow=classic;html=1;entryX=0;entryY=0.5;entryDx=0;entryDy=0;" edge="1" parent="1" target="_ivJA7id74B36ELSF1Od-14">
          <mxGeometry width="50" height="50" relative="1" as="geometry">
            <mxPoint x="380" y="400" as="sourcePoint" />
            <mxPoint x="440" y="380" as="targetPoint" />
          </mxGeometry>
        </mxCell>
        <mxCell id="_ivJA7id74B36ELSF1Od-16" value="&lt;span style=&quot;color: rgba(0 , 0 , 0 , 0) ; font-family: monospace ; font-size: 0px&quot;&gt;Message&lt;/span&gt;" style="shape=process;whiteSpace=wrap;html=1;backgroundOutline=1;" vertex="1" parent="1">
          <mxGeometry x="620" y="280" width="120" height="60" as="geometry" />
        </mxCell>
        <mxCell id="_ivJA7id74B36ELSF1Od-17" value="" style="shape=process;whiteSpace=wrap;html=1;backgroundOutline=1;" vertex="1" parent="1">
          <mxGeometry x="620" y="400" width="120" height="60" as="geometry" />
        </mxCell>
        <mxCell id="_ivJA7id74B36ELSF1Od-18" value="" style="shape=process;whiteSpace=wrap;html=1;backgroundOutline=1;" vertex="1" parent="1">
          <mxGeometry x="620" y="530" width="120" height="60" as="geometry" />
        </mxCell>
        <mxCell id="_ivJA7id74B36ELSF1Od-19" value="Messaging Service" style="text;html=1;align=center;verticalAlign=middle;resizable=0;points=[];autosize=1;" vertex="1" parent="1">
          <mxGeometry x="620" y="305" width="120" height="20" as="geometry" />
        </mxCell>
        <mxCell id="_ivJA7id74B36ELSF1Od-20" value="Notification Service" style="text;html=1;align=center;verticalAlign=middle;resizable=0;points=[];autosize=1;" vertex="1" parent="1">
          <mxGeometry x="620" y="425" width="120" height="20" as="geometry" />
        </mxCell>
        <mxCell id="_ivJA7id74B36ELSF1Od-21" value="Process Handling&lt;br&gt;&amp;nbsp;Service" style="text;html=1;align=center;verticalAlign=middle;resizable=0;points=[];autosize=1;" vertex="1" parent="1">
          <mxGeometry x="625" y="545" width="110" height="30" as="geometry" />
        </mxCell>
        <mxCell id="_ivJA7id74B36ELSF1Od-22" value="" style="endArrow=classic;html=1;exitX=1;exitY=0.5;exitDx=0;exitDy=0;entryX=0.048;entryY=0.01;entryDx=0;entryDy=0;entryPerimeter=0;" edge="1" parent="1" source="_ivJA7id74B36ELSF1Od-14" target="_ivJA7id74B36ELSF1Od-19">
          <mxGeometry width="50" height="50" relative="1" as="geometry">
            <mxPoint x="530" y="420" as="sourcePoint" />
            <mxPoint x="580" y="370" as="targetPoint" />
          </mxGeometry>
        </mxCell>
        <mxCell id="_ivJA7id74B36ELSF1Od-27" value="" style="endArrow=classic;html=1;exitX=1.034;exitY=0.643;exitDx=0;exitDy=0;exitPerimeter=0;entryX=-0.021;entryY=0.286;entryDx=0;entryDy=0;entryPerimeter=0;" edge="1" parent="1" source="_ivJA7id74B36ELSF1Od-14" target="_ivJA7id74B36ELSF1Od-20">
          <mxGeometry width="50" height="50" relative="1" as="geometry">
            <mxPoint x="650" y="500" as="sourcePoint" />
            <mxPoint x="700" y="450" as="targetPoint" />
          </mxGeometry>
        </mxCell>
        <mxCell id="_ivJA7id74B36ELSF1Od-30" value="" style="endArrow=classic;html=1;exitX=1.025;exitY=0.869;exitDx=0;exitDy=0;exitPerimeter=0;" edge="1" parent="1" source="_ivJA7id74B36ELSF1Od-14" target="_ivJA7id74B36ELSF1Od-18">
          <mxGeometry width="50" height="50" relative="1" as="geometry">
            <mxPoint x="542.72" y="410.3650000000001" as="sourcePoint" />
            <mxPoint x="627.48" y="440.72000000000014" as="targetPoint" />
          </mxGeometry>
        </mxCell>
        <mxCell id="_ivJA7id74B36ELSF1Od-31" value="Service&lt;br&gt;Discovery" style="shape=process;whiteSpace=wrap;html=1;backgroundOutline=1;" vertex="1" parent="1">
          <mxGeometry x="780" y="375" width="120" height="60" as="geometry" />
        </mxCell>
        <mxCell id="_ivJA7id74B36ELSF1Od-32" value="" style="endArrow=classic;startArrow=classic;html=1;exitX=0.991;exitY=0.914;exitDx=0;exitDy=0;exitPerimeter=0;" edge="1" parent="1" source="_ivJA7id74B36ELSF1Od-16" target="_ivJA7id74B36ELSF1Od-31">
          <mxGeometry width="50" height="50" relative="1" as="geometry">
            <mxPoint x="740" y="370" as="sourcePoint" />
            <mxPoint x="790" y="320" as="targetPoint" />
          </mxGeometry>
        </mxCell>
        <mxCell id="_ivJA7id74B36ELSF1Od-33" value="" style="endArrow=classic;startArrow=classic;html=1;exitX=0.997;exitY=0.34;exitDx=0;exitDy=0;exitPerimeter=0;" edge="1" parent="1" source="_ivJA7id74B36ELSF1Od-17">
          <mxGeometry width="50" height="50" relative="1" as="geometry">
            <mxPoint x="748.9200000000001" y="344.84000000000003" as="sourcePoint" />
            <mxPoint x="780" y="400" as="targetPoint" />
          </mxGeometry>
        </mxCell>
        <mxCell id="_ivJA7id74B36ELSF1Od-34" value="" style="endArrow=classic;startArrow=classic;html=1;entryX=0.014;entryY=0.676;entryDx=0;entryDy=0;entryPerimeter=0;" edge="1" parent="1" source="_ivJA7id74B36ELSF1Od-18" target="_ivJA7id74B36ELSF1Od-31">
          <mxGeometry width="50" height="50" relative="1" as="geometry">
            <mxPoint x="749.6400000000001" y="430.4" as="sourcePoint" />
            <mxPoint x="790" y="410.0000000000001" as="targetPoint" />
          </mxGeometry>
        </mxCell>
        <mxCell id="_ivJA7id74B36ELSF1Od-35" value="Cache&lt;br&gt;" style="shape=cylinder;whiteSpace=wrap;html=1;boundedLbl=1;backgroundOutline=1;" vertex="1" parent="1">
          <mxGeometry x="930" y="360" width="40" height="50" as="geometry" />
        </mxCell>
        <mxCell id="_ivJA7id74B36ELSF1Od-36" value="" style="endArrow=classic;startArrow=classic;html=1;exitX=0.997;exitY=0.183;exitDx=0;exitDy=0;exitPerimeter=0;" edge="1" parent="1" source="_ivJA7id74B36ELSF1Od-19" target="_ivJA7id74B36ELSF1Od-3">
          <mxGeometry width="50" height="50" relative="1" as="geometry">
            <mxPoint x="740" y="340" as="sourcePoint" />
            <mxPoint x="790" y="290" as="targetPoint" />
          </mxGeometry>
        </mxCell>
        <mxCell id="_ivJA7id74B36ELSF1Od-37" value="" style="verticalLabelPosition=bottom;aspect=fixed;html=1;verticalAlign=top;strokeColor=none;align=center;outlineConnect=0;shape=mxgraph.citrix.edgesight_server;" vertex="1" parent="1">
          <mxGeometry x="920" y="460" width="20" height="23.53" as="geometry" />
        </mxCell>
        <mxCell id="_ivJA7id74B36ELSF1Od-38" value="CDN" style="text;html=1;align=center;verticalAlign=middle;resizable=0;points=[];autosize=1;" vertex="1" parent="1">
          <mxGeometry x="905" y="500" width="40" height="20" as="geometry" />
        </mxCell>
        <mxCell id="_ivJA7id74B36ELSF1Od-39" value="" style="endArrow=classic;startArrow=classic;html=1;exitX=1.002;exitY=0.597;exitDx=0;exitDy=0;exitPerimeter=0;" edge="1" parent="1" source="_ivJA7id74B36ELSF1Od-19" target="_ivJA7id74B36ELSF1Od-35">
          <mxGeometry width="50" height="50" relative="1" as="geometry">
            <mxPoint x="749.6400000000001" y="318.6600000000001" as="sourcePoint" />
            <mxPoint x="920" y="324.4869443245577" as="targetPoint" />
          </mxGeometry>
        </mxCell>
        <mxCell id="_ivJA7id74B36ELSF1Od-40" value="MultiDataPart&lt;br&gt;Service" style="shape=process;whiteSpace=wrap;html=1;backgroundOutline=1;" vertex="1" parent="1">
          <mxGeometry x="780" y="540" width="120" height="60" as="geometry" />
        </mxCell>
        <mxCell id="_ivJA7id74B36ELSF1Od-41" value="" style="endArrow=classic;startArrow=classic;html=1;" edge="1" parent="1" source="_ivJA7id74B36ELSF1Od-40" target="_ivJA7id74B36ELSF1Od-31">
          <mxGeometry width="50" height="50" relative="1" as="geometry">
            <mxPoint x="810" y="510" as="sourcePoint" />
            <mxPoint x="860" y="460" as="targetPoint" />
          </mxGeometry>
        </mxCell>
        <mxCell id="_ivJA7id74B36ELSF1Od-42" value="" style="endArrow=classic;startArrow=classic;html=1;" edge="1" parent="1" source="_ivJA7id74B36ELSF1Od-40">
          <mxGeometry width="50" height="50" relative="1" as="geometry">
            <mxPoint x="680" y="390" as="sourcePoint" />
            <mxPoint x="730" y="340" as="targetPoint" />
          </mxGeometry>
        </mxCell>
        <mxCell id="_ivJA7id74B36ELSF1Od-43" value="" style="endArrow=classic;html=1;" edge="1" parent="1" source="_ivJA7id74B36ELSF1Od-40" target="_ivJA7id74B36ELSF1Od-37">
          <mxGeometry width="50" height="50" relative="1" as="geometry">
            <mxPoint x="870" y="590" as="sourcePoint" />
            <mxPoint x="920" y="540" as="targetPoint" />
          </mxGeometry>
        </mxCell>
      </root>
    </mxGraphModel>
  </diagram>
</mxfile>
